<svg width="16" height="16" viewBox="0 0 16 16" fill="none" xmlns="http://www.w3.org/2000/svg">
<path d="M8.00008 0.82548C11.9534 0.82548 15.1667 4.03881 15.1667 7.99215C15.1667 11.9455 11.9534 15.1588 8.00008 15.1588C4.04675 15.1588 0.833414 11.9455 0.833414 7.99215C0.833414 4.03881 4.04675 0.82548 8.00008 0.82548ZM8.00008 14.1588C11.4001 14.1588 14.1667 11.3921 14.1667 7.99215C14.1667 4.59215 11.4001 1.82548 8.00008 1.82548C4.60008 1.82548 1.83341 4.59215 1.83341 7.99215C1.83341 11.3921 4.60008 14.1588 8.00008 14.1588Z" fill="#707070"/>
<path d="M8 6.82548C8.27333 6.82548 8.5 7.05215 8.5 7.32548V10.6588C8.5 10.9321 8.27333 11.1588 8 11.1588C7.72667 11.1588 7.5 10.9321 7.5 10.6588V7.32548C7.5 7.05215 7.72667 6.82548 8 6.82548Z" fill="#707070"/>
<path d="M8.00008 4.65889C8.08675 4.65889 8.17341 4.67889 8.25341 4.71222C8.33341 4.74556 8.40675 4.79223 8.47341 4.85223C8.53341 4.91889 8.58008 4.98556 8.61341 5.07223C8.64675 5.15223 8.66675 5.23889 8.66675 5.32556C8.66675 5.41222 8.64675 5.49889 8.61341 5.57889C8.58008 5.65889 8.53341 5.73222 8.47341 5.79889C8.40675 5.85889 8.33341 5.90556 8.25341 5.93889C8.09341 6.00556 7.90675 6.00556 7.74675 5.93889C7.66675 5.90556 7.59341 5.85889 7.52675 5.79889C7.46675 5.73222 7.42008 5.65889 7.38675 5.57889C7.35341 5.49889 7.33341 5.41222 7.33341 5.32556C7.33341 5.23889 7.35341 5.15223 7.38675 5.07223C7.42008 4.98556 7.46675 4.91889 7.52675 4.85223C7.59341 4.79223 7.66675 4.74556 7.74675 4.71222C7.82675 4.67889 7.91341 4.65889 8.00008 4.65889Z" fill="#707070"/>
</svg>
