<svg width="16" height="16" viewBox="0 0 16 16" fill="none" xmlns="http://www.w3.org/2000/svg">
<path d="M14.4427 6.95642L13.7894 9.74309C13.2294 12.1498 12.1227 13.1231 10.0427 12.9231C9.70939 12.8964 9.34939 12.8364 8.96272 12.7431L7.84272 12.4764C5.06272 11.8164 4.20272 10.4431 4.85606 7.65643L5.50939 4.86309C5.64272 4.29642 5.80272 3.80309 6.00272 3.39642C6.78272 1.78309 8.10939 1.34976 10.3361 1.87642L11.4494 2.13642C14.2427 2.78976 15.0961 4.16976 14.4427 6.95642Z" stroke="#707070" stroke-linecap="round" stroke-linejoin="round"/>
<path d="M10.0363 12.9251C9.62299 13.2051 9.10299 13.4384 8.46965 13.6451L7.41632 13.9918C4.76965 14.8451 3.37632 14.1318 2.51632 11.4851L1.66299 8.85177C0.809654 6.2051 1.51632 4.8051 4.16299 3.95177L5.21632 3.6051C5.48965 3.51844 5.74965 3.4451 5.99632 3.39844C5.79632 3.8051 5.63632 4.29844 5.50299 4.8651L4.84965 7.65844C4.19632 10.4451 5.05632 11.8184 7.83632 12.4784L8.95632 12.7451C9.34299 12.8384 9.70299 12.8984 10.0363 12.9251Z" stroke="#707070" stroke-linecap="round" stroke-linejoin="round"/>
<path d="M8.42969 5.6875L11.663 6.5075" stroke="#707070" stroke-linecap="round" stroke-linejoin="round"/>
<path d="M7.77344 8.26562L9.70677 8.75896" stroke="#707070" stroke-linecap="round" stroke-linejoin="round"/>
</svg>
