<svg width="16" height="17" viewBox="0 0 16 17" fill="none" xmlns="http://www.w3.org/2000/svg">
<path d="M12.3312 13.4995H9.66455" stroke="#731054" stroke-linecap="round" stroke-linejoin="round"/>
<path d="M11.0005 14.8304V12.1637" stroke="#731054" stroke-linecap="round" stroke-linejoin="round"/>
<path d="M8.10645 7.74934C8.03979 7.74267 7.9598 7.74267 7.88647 7.74934C6.29995 7.69601 5.04006 6.39613 5.04006 4.79628C5.0334 3.16309 6.35994 1.83655 7.99313 1.83655C9.62631 1.83655 10.9529 3.16309 10.9529 4.79628C10.9529 6.39613 9.68631 7.69601 8.10645 7.74934Z" stroke="#731054" stroke-linecap="round" stroke-linejoin="round"/>
<path d="M7.99612 15.0418C6.78289 15.0418 5.57634 14.7352 4.65642 14.1219C3.04324 13.042 3.04324 11.2822 4.65642 10.2089C6.48959 8.98236 9.49598 8.98236 11.3291 10.2089" stroke="#731054" stroke-linecap="round" stroke-linejoin="round"/>
</svg>
